<svg width="250" height="250" viewBox="0 0 250 250" fill="none" xmlns="http://www.w3.org/2000/svg">
<g clip-path="url(#clip0)">
<rect width="250" height="250" fill="white"/>
<path d="M77.9492 134.18C72.6172 128.262 68.457 121.348 65.4688 113.438C62.5391 105.527 61.0742 97.6465 61.0742 89.7949C61.0742 81.9434 61.8652 75 63.4473 68.9648C65.0879 62.9297 67.373 57.3047 70.3027 52.0898C73.291 46.875 76.8066 42.1289 80.8496 37.8516C84.9512 33.5742 89.4922 29.9414 94.4727 26.9531C104.785 20.625 115.244 17.4609 125.85 17.4609C136.514 17.4609 145.596 19.1309 153.096 22.4707C160.654 25.8105 167.07 30.4102 172.344 36.2695C183.301 48.457 188.779 64.0723 188.779 83.1152C188.779 99.4043 184.15 113.848 174.893 126.445C165.928 138.574 154.355 146.66 140.176 150.703C157.168 159.668 173.955 166.406 190.537 170.918C196.748 172.617 202.871 173.789 208.906 174.434C208.906 179.824 208.145 183.809 206.621 186.387C205.156 189.023 203.867 190.781 202.754 191.66C178.848 185.625 157.051 176.016 137.363 162.832C132.91 159.844 128.662 156.592 124.619 153.076C124.268 153.135 123.916 153.164 123.564 153.164C123.213 153.164 122.861 153.164 122.51 153.164C113.311 153.164 104.932 151.465 97.373 148.066C89.8145 144.668 83.3398 140.039 77.9492 134.18ZM79.0918 81.0938C79.0918 90 80.3516 98.291 82.8711 105.967C85.4492 113.584 88.9648 120.059 93.418 125.391C102.5 136.289 114.072 141.738 128.135 141.738C140.967 141.738 151.191 137.461 158.809 128.906C166.777 119.941 170.762 107.373 170.762 91.2012C170.762 72.1582 166.074 56.8359 156.699 45.2344C147.91 34.2188 136.719 28.7109 123.125 28.7109C109.414 28.7109 98.6621 33.1934 90.8691 42.1582C83.0176 51.2402 79.0918 64.2188 79.0918 81.0938Z" fill="black"/>
<path d="M66.6582 224.363C65.7695 223.377 65.0762 222.225 64.5781 220.906C64.0898 219.588 63.8457 218.274 63.8457 216.966C63.8457 215.657 63.9775 214.5 64.2412 213.494C64.5146 212.488 64.8955 211.551 65.3838 210.682C65.8818 209.812 66.4678 209.021 67.1416 208.309C67.8252 207.596 68.582 206.99 69.4121 206.492C71.1309 205.438 72.874 204.91 74.6416 204.91C76.4189 204.91 77.9326 205.188 79.1826 205.745C80.4424 206.302 81.5117 207.068 82.3906 208.045C84.2168 210.076 85.1299 212.679 85.1299 215.853C85.1299 218.567 84.3584 220.975 82.8154 223.074C81.3213 225.096 79.3926 226.443 77.0293 227.117C79.8613 228.611 82.6592 229.734 85.4229 230.486C86.458 230.77 87.4785 230.965 88.4844 231.072C88.4844 231.971 88.3574 232.635 88.1035 233.064C87.8594 233.504 87.6445 233.797 87.459 233.943C83.4746 232.938 79.8418 231.336 76.5605 229.139C75.8184 228.641 75.1104 228.099 74.4365 227.513C74.3779 227.522 74.3193 227.527 74.2607 227.527C74.2021 227.527 74.1436 227.527 74.085 227.527C72.5518 227.527 71.1553 227.244 69.8955 226.678C68.6357 226.111 67.5566 225.34 66.6582 224.363ZM66.8486 215.516C66.8486 217 67.0586 218.382 67.4785 219.661C67.9082 220.931 68.4941 222.01 69.2363 222.898C70.75 224.715 72.6787 225.623 75.0225 225.623C77.1611 225.623 78.8652 224.91 80.1348 223.484C81.4629 221.99 82.127 219.896 82.127 217.2C82.127 214.026 81.3457 211.473 79.7832 209.539C78.3184 207.703 76.4531 206.785 74.1875 206.785C71.9023 206.785 70.1104 207.532 68.8115 209.026C67.5029 210.54 66.8486 212.703 66.8486 215.516ZM93.8457 225.052C94.2656 225.228 94.8711 225.315 95.6621 225.315C96.4531 225.315 97.6006 224.876 99.1045 223.997V215.311L97.0244 214.402L96.9365 214.227L97.0244 213.436L101.17 211.927L101.448 212.029V224.07C101.448 224.275 101.482 224.437 101.551 224.554C101.629 224.671 101.746 224.729 101.902 224.729C102.059 224.729 102.244 224.72 102.459 224.7L103.089 224.642C103.343 224.612 103.611 224.583 103.895 224.554L104.07 224.759L103.719 225.975L99.7197 227.337L99.5146 227.132L99.3389 225.315L99.207 225.286L98.5039 225.799C97.7324 226.355 97 226.78 96.3066 227.073C95.623 227.376 94.9883 227.527 94.4023 227.527C93.8262 227.527 93.2354 227.405 92.6299 227.161C92.0244 226.927 91.5117 226.59 91.0918 226.15C90.2422 225.262 89.8174 224.041 89.8174 222.488V214.915L88.3672 214.197L88.2354 214.036L88.3672 213.23L91.9268 211.927L92.1611 212.059V221.829C92.1611 223.519 92.7227 224.593 93.8457 225.052ZM105.799 219.822C105.799 218.719 106.004 217.664 106.414 216.658C106.834 215.652 107.4 214.778 108.113 214.036C109.646 212.444 111.468 211.648 113.577 211.648C115.755 211.648 117.503 212.381 118.821 213.846C120.091 215.252 120.726 217.068 120.726 219.295C120.726 221.619 119.964 223.582 118.44 225.184C116.946 226.746 115.125 227.527 112.977 227.527C110.857 227.527 109.119 226.78 107.762 225.286C106.453 223.841 105.799 222.02 105.799 219.822ZM109.651 214.666C109.251 215.135 108.943 215.73 108.729 216.453C108.514 217.166 108.406 218.021 108.406 219.017C108.406 220.003 108.562 220.916 108.875 221.756C109.188 222.596 109.593 223.323 110.091 223.938C111.146 225.237 112.322 225.887 113.621 225.887C115.77 225.887 117.156 224.871 117.781 222.84C118.006 222.127 118.118 221.258 118.118 220.232C118.118 219.207 117.957 218.265 117.635 217.405C117.322 216.546 116.917 215.813 116.419 215.208C115.931 214.593 115.384 214.119 114.778 213.787C114.183 213.445 113.562 213.274 112.918 213.274C112.283 213.274 111.678 213.392 111.102 213.626C110.535 213.851 110.052 214.197 109.651 214.666ZM129.354 225.286C130.428 225.286 131.546 225.057 132.708 224.598C133.06 224.812 133.255 225.154 133.294 225.623C131.575 226.893 130.149 227.527 129.017 227.527C127.688 227.527 126.678 227.088 125.984 226.209C125.379 225.438 125.076 224.393 125.076 223.074V213.86H123.157C123.079 213.694 123.04 213.528 123.04 213.362C123.04 213.157 123.113 212.962 123.26 212.776L125.398 212.029L126.468 208.074H127.464V212.278C128.548 212.278 130.247 212.229 132.562 212.132C132.562 212.181 132.566 212.229 132.576 212.278L132.591 212.645C132.591 213.182 132.474 213.587 132.239 213.86H127.464V222.957C127.464 223.611 127.591 224.1 127.845 224.422C128.284 224.998 128.787 225.286 129.354 225.286ZM141.014 208.558C140.75 208.831 140.506 209.021 140.281 209.129C140.057 209.236 139.832 209.29 139.607 209.29C139.393 209.29 139.178 209.246 138.963 209.158C138.758 209.061 138.572 208.934 138.406 208.777C138.025 208.436 137.835 208.104 137.835 207.781C137.835 207.459 137.879 207.195 137.967 206.99C138.064 206.775 138.191 206.58 138.348 206.404C138.699 206.014 139.109 205.818 139.578 205.818C140.008 205.818 140.369 205.945 140.662 206.199C141.17 206.639 141.424 207.063 141.424 207.474C141.424 207.913 141.287 208.274 141.014 208.558ZM136.59 225.755L138.523 225.125V215.442L136.487 214.578L136.326 214.402L136.487 213.611L140.618 211.927L140.867 212.059V225.125L143.211 225.623L143.27 225.828L143.108 227H136.546L136.443 226.868L136.59 225.755ZM152.645 227.527C150.838 227.527 148.953 227.063 146.99 226.136V206.258L144.646 205.672L144.544 205.467L144.646 204.676L149.085 203.035L149.319 203.167V213.479C150.979 212.259 152.381 211.648 153.523 211.648C154.666 211.648 155.638 211.834 156.438 212.205C157.249 212.566 157.938 213.074 158.504 213.729C159.695 215.086 160.291 216.829 160.291 218.958C160.291 221.331 159.588 223.343 158.182 224.993C156.727 226.683 154.881 227.527 152.645 227.527ZM149.319 214.783V223.968C149.925 224.71 150.76 225.271 151.824 225.652C152.273 225.809 152.796 225.887 153.392 225.887C153.997 225.887 154.573 225.74 155.12 225.447C155.677 225.154 156.155 224.744 156.556 224.217C157.415 223.084 157.845 221.644 157.845 219.896C157.845 217.991 157.381 216.507 156.453 215.442C155.545 214.407 154.397 213.89 153.011 213.89C151.624 213.89 150.394 214.188 149.319 214.783ZM163.997 225.755L165.901 225.125V206.258L163.602 205.672L163.44 205.467L163.602 204.676L168.011 203.035L168.245 203.167V225.125L170.589 225.623L170.706 225.828L170.486 227H163.938L163.865 226.868L163.997 225.755ZM184.798 223.675C185.306 223.88 185.584 224.241 185.633 224.759C184.139 226.175 182.635 227.059 181.121 227.41C180.789 227.488 180.452 227.527 180.11 227.527C178.06 227.527 176.395 226.805 175.115 225.359C173.846 223.943 173.211 222.176 173.211 220.057C173.211 217.752 173.968 215.77 175.481 214.109C176.175 213.348 176.976 212.747 177.884 212.308C178.792 211.868 179.71 211.648 180.638 211.648C181.575 211.648 182.366 211.814 183.011 212.146C183.665 212.469 184.207 212.908 184.637 213.465C185.496 214.559 185.926 215.955 185.926 217.654C185.926 218.133 185.882 218.548 185.794 218.899C185.687 219.144 183.68 219.266 179.773 219.266C178.475 219.266 177.103 219.246 175.657 219.207C175.677 221.072 176.277 222.576 177.459 223.719C178.514 224.734 179.705 225.242 181.033 225.242C182.361 225.242 183.616 224.72 184.798 223.675ZM176.873 217.859C179.803 217.859 181.941 217.767 183.289 217.581C183.289 216.536 182.977 215.574 182.352 214.695C181.668 213.748 180.853 213.274 179.905 213.274C178.87 213.274 177.977 213.66 177.225 214.432C176.414 215.242 175.916 216.385 175.73 217.859H176.873Z" fill="black"/>
<path d="M37.293 55.1885C37.6738 55.6865 37.8643 56.2871 37.8643 56.9902C37.8643 57.6934 37.7031 58.3672 37.3809 59.0117C37.0879 59.627 36.6924 60.1982 36.1943 60.7256C35.0225 61.9561 33.9678 62.5713 33.0303 62.5713C32.0928 62.5713 31.2871 62.3809 30.6133 62C29.9395 61.6191 29.3389 61.1357 28.8115 60.5498C27.6689 59.2314 27.0977 57.8398 27.0977 56.375C27.0977 54.9102 27.2295 53.5186 27.4932 52.2002C27.7861 50.8525 28.167 49.6221 28.6357 48.5088C30.4229 44.1729 33.1914 40.7305 36.9414 38.1816C38.1133 38.4453 38.7578 39.1924 38.875 40.4229C38.8164 40.4229 38.5381 40.7012 38.04 41.2578C37.542 41.8145 37 42.5029 36.4141 43.3232C34.8906 45.5205 34.1289 47.3076 34.1289 48.6846C34.1289 50.0322 34.3193 51.0723 34.7002 51.8047C35.1104 52.5371 35.5352 53.167 35.9746 53.6943L37.293 55.1885ZM52.8057 55.1885C53.1865 55.6865 53.377 56.2871 53.377 56.9902C53.377 57.6934 53.2158 58.3672 52.8936 59.0117C52.6006 59.627 52.2051 60.1982 51.707 60.7256C50.5352 61.9561 49.4805 62.5713 48.543 62.5713C47.6055 62.5713 46.7998 62.3809 46.126 62C45.4521 61.6191 44.8516 61.1357 44.3242 60.5498C43.1816 59.2314 42.6104 57.8398 42.6104 56.375C42.6104 54.9102 42.7422 53.5186 43.0059 52.2002C43.2988 50.8525 43.6797 49.6221 44.1484 48.5088C45.9355 44.1729 48.7041 40.7305 52.4541 38.1816C53.626 38.4453 54.2705 39.1924 54.3877 40.4229C54.3291 40.4229 54.0508 40.7012 53.5527 41.2578C53.0547 41.8145 52.5127 42.5029 51.9268 43.3232C50.4033 45.5205 49.6416 47.3076 49.6416 48.6846C49.6416 50.0322 49.832 51.0723 50.2129 51.8047C50.623 52.5371 51.0479 53.167 51.4873 53.6943L52.8057 55.1885Z" fill="black"/>
</g>
<defs>
<clipPath id="clip0">
<rect width="250" height="250" fill="white"/>
</clipPath>
</defs>
</svg>
